<svg width="86" height="57" viewBox="0 0 86 57" fill="none" xmlns="http://www.w3.org/2000/svg">
<ellipse cx="38.4198" cy="37.8286" rx="10.744" ry="10.8618" fill="#F9B50A"/>
<ellipse cx="35.3499" cy="40.9321" rx="10.744" ry="10.8618" fill="#F9CD0A" fill-opacity="0.68"/>
<path d="M49.2256 49.4395C49.5186 49 49.7529 48.5898 49.9287 48.209C50.1045 47.8281 50.251 47.5059 50.3682 47.2422C50.4854 46.9199 50.5732 46.627 50.6318 46.3633C50.6611 46.1875 50.6758 45.6748 50.6758 44.8252C50.6758 43.9756 50.6465 42.9062 50.5879 41.6172C50.5586 40.3281 50.5146 38.8779 50.4561 37.2666C50.4268 35.6553 50.3682 34.0146 50.2803 32.3447C50.2217 30.6748 50.1484 29.0488 50.0605 27.4668C50.002 25.8848 49.9434 24.4639 49.8848 23.2041C49.8262 21.915 49.7676 20.8604 49.709 20.04C49.6504 19.2197 49.6064 18.751 49.5771 18.6338C49.5186 18.458 49.416 18.2822 49.2695 18.1064C48.9766 17.7549 48.4785 17.418 47.7754 17.0957C49.2695 16.7148 50.4121 16.4072 51.2031 16.1729C51.6719 16.0557 52.082 15.9385 52.4336 15.8213C52.7559 15.7041 53.0781 15.5869 53.4004 15.4697C53.6641 15.3525 53.957 15.2207 54.2793 15.0742C54.6016 14.8984 54.8945 14.708 55.1582 14.5029C55.0117 15.3525 54.8945 16.1729 54.8066 16.9639C54.7188 17.7549 54.6455 18.4873 54.5869 19.1611C54.5283 19.9229 54.499 20.6553 54.499 21.3584C54.3525 22.7939 54.2646 24.3613 54.2354 26.0605C54.2354 27.7305 54.25 29.4297 54.2793 31.1582C54.3086 32.8867 54.3672 34.5713 54.4551 36.2119C54.543 37.8525 54.6309 39.3467 54.7188 40.6943C54.8359 42.0127 54.9385 43.1406 55.0264 44.0781C55.1436 44.9863 55.2314 45.5723 55.29 45.8359C55.4072 46.2754 55.5244 46.7002 55.6416 47.1104C55.7588 47.4619 55.8906 47.8281 56.0371 48.209C56.1836 48.6191 56.3594 48.9414 56.5645 49.1758H52.3018C51.9209 49.1758 51.5547 49.1904 51.2031 49.2197C50.8809 49.249 50.5439 49.2783 50.1924 49.3076C49.8408 49.3369 49.5186 49.3809 49.2256 49.4395ZM79.7236 14.5469C80.2803 14.5762 80.8809 14.5908 81.5254 14.5908C82.082 14.5908 82.7119 14.6055 83.415 14.6348C84.1475 14.6348 84.9092 14.6055 85.7002 14.5469C84.9971 14.8691 84.3818 15.3379 83.8545 15.9531C83.3271 16.5684 82.9023 17.1836 82.5801 17.7988C82.1699 18.5312 81.833 19.293 81.5693 20.084C81.4229 20.5527 81.3057 21.3877 81.2178 22.5889C81.1299 23.7607 81.0566 25.1377 80.998 26.7197C80.9688 28.3018 80.9541 29.9717 80.9541 31.7295C80.9541 33.4873 80.9688 35.1719 80.998 36.7832C81.0273 38.3652 81.0713 39.7715 81.1299 41.002C81.1885 42.2324 81.2617 43.0967 81.3496 43.5947C81.4668 44.1807 81.6133 44.7373 81.7891 45.2646C81.9355 45.7334 82.126 46.2168 82.3604 46.7148C82.5947 47.1836 82.8877 47.5645 83.2393 47.8574L78.7568 49.8789C78.5225 49.5566 78.332 49.2197 78.1855 48.8682C78.0391 48.5459 77.9219 48.2529 77.834 47.9893C77.7168 47.667 77.6436 47.374 77.6143 47.1104C77.5557 46.7588 77.4971 46.3779 77.4385 45.9678C77.3799 45.5283 77.3066 45.1182 77.2188 44.7373C77.1602 44.3271 77.1162 43.9902 77.0869 43.7266C77.0576 43.4629 77.0576 43.3018 77.0869 43.2432C77.1162 43.1846 76.9404 43.4482 76.5596 44.0342C76.1787 44.5908 75.6074 45.25 74.8457 46.0117C74.1133 46.7441 73.2051 47.4619 72.1211 48.165C71.0371 48.8389 69.8213 49.2637 68.4736 49.4395C67.0967 49.6152 65.8223 49.3516 64.6504 48.6484C63.5078 47.9453 62.5264 46.9639 61.7061 45.7041C60.8857 44.415 60.2559 42.9355 59.8164 41.2656C59.4062 39.5664 59.2451 37.8379 59.333 36.0801C59.3916 34.9082 59.6553 33.8682 60.124 32.96C60.5928 32.0225 61.1787 31.2168 61.8818 30.543C62.6143 29.8398 63.4053 29.2539 64.2549 28.7852C65.1338 28.2871 65.9834 27.877 66.8037 27.5547C67.6533 27.2324 68.4443 26.998 69.1768 26.8516C69.9092 26.7051 70.4951 26.6025 70.9346 26.5439C71.4619 26.5146 72.0625 26.6025 72.7363 26.8076C73.3223 26.9834 73.9961 27.2764 74.7578 27.6865C75.5488 28.0967 76.4277 28.7119 77.3945 29.5322C77.2188 26.6025 77.0576 24.2588 76.9111 22.501C76.7646 20.7139 76.6182 19.3516 76.4717 18.4141C76.3252 17.3008 76.1934 16.5391 76.0762 16.1289C75.9297 15.8359 75.7393 15.543 75.5049 15.25C75.2998 15.0156 75.0361 14.7813 74.7139 14.5469C74.4209 14.2832 74.0693 14.0781 73.6592 13.9316C74.4209 14.0781 75.1533 14.1807 75.8564 14.2393C76.5596 14.2979 77.2041 14.3564 77.79 14.415C78.4639 14.4736 79.1084 14.5176 79.7236 14.5469ZM68.6934 30.9385C68.1367 31.1436 67.6826 31.4951 67.3311 31.9932C67.0088 32.4912 66.7451 33.0918 66.54 33.7949C66.335 34.4688 66.1885 35.2012 66.1006 35.9922C66.042 36.7539 65.998 37.501 65.9688 38.2334C65.9688 38.9365 65.9688 39.5811 65.9688 40.167C65.9688 40.7529 65.9688 41.1924 65.9688 41.4854C65.9688 41.6611 65.998 41.9834 66.0566 42.4521C66.1445 42.8916 66.3203 43.3604 66.584 43.8584C66.8477 44.3271 67.2139 44.752 67.6826 45.1328C68.1807 45.5137 68.8398 45.7041 69.6602 45.7041C70.334 45.6455 71.0518 45.4111 71.8135 45.001C72.4873 44.6494 73.249 44.0928 74.0986 43.3311C74.9775 42.54 75.915 41.4121 76.9111 39.9473C76.8525 39.0098 76.8086 38.2334 76.7793 37.6182C76.7793 37.0029 76.7646 36.5049 76.7354 36.124C76.7061 35.6846 76.6914 35.333 76.6914 35.0693V34.4102C76.6914 34.2344 76.6914 34.0439 76.6914 33.8389C76.6914 33.6338 76.7061 33.4434 76.7354 33.2676C75.915 32.6816 75.1826 32.1836 74.5381 31.7734C73.9229 31.334 73.3076 31.0117 72.6924 30.8066C72.1064 30.5723 71.4912 30.4697 70.8467 30.499C70.2314 30.499 69.5137 30.6455 68.6934 30.9385Z" fill="#EF9A3E"/>
<path d="M12.3 51.4C11.4 51.4 10.4833 51.3 9.55 51.1C8.65 50.9333 7.8 50.6167 7 50.15C6.23333 49.6833 5.55 49.1 4.95 48.4C4.35 47.7 3.86667 46.9333 3.5 46.1C3.13333 45.2667 2.88333 44.4 2.75 43.5C2.61667 42.5667 2.55 41.65 2.55 40.75V24.5C2.55 23.6 2.61667 22.7 2.75 21.8C2.88333 20.8667 3.13333 19.9833 3.5 19.15C3.86667 18.3167 4.35 17.55 4.95 16.85C5.58333 16.1167 6.28333 15.5333 7.05 15.1C7.85 14.6333 8.7 14.3167 9.6 14.15C10.5333 13.95 11.45 13.85 12.35 13.85C13.2167 13.85 14.0667 13.9333 14.9 14.1C15.7667 14.2333 16.5833 14.5 17.35 14.9C18.1167 15.2667 18.8 15.7667 19.4 16.4C20.0333 17 20.55 17.6833 20.95 18.45C21.35 19.1833 21.65 19.9833 21.85 20.85C22.05 21.6833 22.15 22.5333 22.15 23.4V23.7H16.6V23.55C16.6 22.95 16.5167 22.35 16.35 21.75C16.1833 21.15 15.9167 20.6167 15.55 20.15C15.1833 19.65 14.7 19.2833 14.1 19.05C13.5333 18.7833 12.95 18.65 12.35 18.65C11.8833 18.65 11.4333 18.7167 11 18.85C10.5667 18.9833 10.1833 19.2 9.85 19.5C9.51667 19.8 9.23333 20.15 9 20.55C8.76667 20.95 8.58333 21.3667 8.45 21.8C8.31667 22.2333 8.21667 22.6833 8.15 23.15C8.11667 23.5833 8.1 24.0333 8.1 24.5V40.75C8.1 41.1833 8.11667 41.6333 8.15 42.1C8.21667 42.5333 8.31667 42.9667 8.45 43.4C8.58333 43.8333 8.75 44.25 8.95 44.65C9.18333 45.05 9.46667 45.4 9.8 45.7C10.1333 46 10.5167 46.2333 10.95 46.4C11.3833 46.5333 11.8333 46.6 12.3 46.6C12.7667 46.6 13.2167 46.5333 13.65 46.4C14.0833 46.2333 14.4667 46 14.8 45.7C15.1333 45.4 15.4 45.05 15.6 44.65C15.8333 44.25 16.0167 43.8333 16.15 43.4C16.2833 42.9667 16.3667 42.5333 16.4 42.1C16.4667 41.6333 16.5 41.1833 16.5 40.75V35.5H12.5V30.7H22.05V40.75C22.05 41.65 21.9833 42.5667 21.85 43.5C21.7167 44.4 21.4667 45.2667 21.1 46.1C20.7333 46.9333 20.25 47.7 19.65 48.4C19.05 49.1 18.35 49.6833 17.55 50.15C16.7833 50.6167 15.9333 50.9333 15 51.1C14.1 51.3 13.2 51.4 12.3 51.4Z" fill="#EF9A3E"/>
</svg>
